<svg width="32" height="32" viewBox="0 0 32 32" fill="none" xmlns="http://www.w3.org/2000/svg">
<path d="M13.0087 15.6083C9.91376 13.6905 11.2569 10.917 11.7429 9.51803C11.7948 9.36112 10.4784 6.61375 11.1099 5.91733C11.7841 5.17383 15.1444 7.32881 15.2592 7.25353C16.279 7.04498 16.8787 7.05485 17.9878 7.25353C18.2511 7.29542 21.5325 4.90097 22.1089 5.91733C22.7372 7.02519 21.4132 9.5328 21.5041 9.51803C22.6924 12.0021 22.4035 13.7792 20.2804 15.6083C20.4861 15.401 16.1037 17.5261 13.0087 15.6083Z" fill="white"/>
<path d="M13.217 15.3569C13.3729 16.6481 10.0584 19.5935 10.7274 23.4304L10.2633 26.3138C10.8731 27.1812 14.8538 26.9932 20.3199 26.9608C25.8263 26.7193 21.3003 16.4408 20.3199 15.3569H13.217Z" fill="white"/>
<path d="M11.3779 24.5456C8.97353 21.6126 9.37009 18.803 9.67276 17.8442C9.97543 16.8854 10.801 16.5386 10.0628 16.0012C8.86101 15.1262 8.36321 16.1326 7.85143 17.4211C6.70779 21.3385 9.06268 26.8506 11.0842 26.6398L11.3779 24.5456Z" fill="white"/>
<path d="M20.3477 12.1078V9.99805H16.6134L17.7175 12.1078H20.3477Z" fill="black"/>
<path d="M16.6134 9.99805H12.8791V12.1078H15.7906L16.6134 9.99805Z" fill="black"/>
</svg>
