<svg width="32" height="32" viewBox="0 0 32 32" fill="none" xmlns="http://www.w3.org/2000/svg">
<rect width="32" height="32" rx="16" fill="#0A0A0A"/>
<path d="M13.0088 15.6083C9.91389 13.6905 11.257 10.917 11.743 9.51803C11.7949 9.36112 10.4786 6.61375 11.11 5.91733C11.7842 5.17383 15.1445 7.32881 15.2593 7.25353C16.2791 7.04498 16.8788 7.05485 17.9879 7.25353C18.2512 7.29542 21.5326 4.90097 22.109 5.91733C22.7374 7.02519 21.4134 9.5328 21.5042 9.51803C22.6925 12.0021 22.4036 13.7792 20.2805 15.6083C20.4863 15.401 16.1038 17.5261 13.0088 15.6083Z" fill="white"/>
<path d="M13.2169 15.3569C13.3728 16.6481 10.0583 19.5935 10.7273 23.4304L10.2632 26.3138C10.873 27.1812 14.8538 26.9932 20.3198 26.9608C25.8262 26.7193 21.3002 16.4408 20.3198 15.3569H13.2169Z" fill="white"/>
<path d="M11.3779 24.5456C8.97353 21.6126 9.37009 18.803 9.67276 17.8442C9.97543 16.8854 10.801 16.5386 10.0628 16.0012C8.86101 15.1262 8.36321 16.1326 7.85143 17.4211C6.70779 21.3385 9.06268 26.8506 11.0842 26.6398L11.3779 24.5456Z" fill="white"/>
<path d="M20.3478 12.1078V9.99805H16.6135L17.7176 12.1078H20.3478Z" fill="black"/>
<path d="M16.6135 9.99805H12.8792V12.1078H15.7906L16.6135 9.99805Z" fill="black"/>
</svg>
